PathFileType	4	(X/Y/Z)	E:\3-PhD\Data\MocapData\ElaboratedData\009\pre\dynamicElaborations\RunA1\RunA1.trc
DataRate	CameraRate	NumFrames	NumMarkers	Units	OrigDataRate	DataStartFrame
200	200	5	54	mm	200	4.160000e+02
Frame#	Time	FHD			LBHD			RBHD			C7			T10			CLAV			LSHO			LUUPA			LMUPA			LDUPA			LLEP			LMEP			LRAD			LUL			LRFIN			RSHO			RUPA1			RMUPA			RDUPA			RLEP			RMEP			RRAD			RUL			RUFIN			RASI			USACR			LSACR			RSACR			LTHI1			LTHI2			LTHI3			LTHI4			LTIB1			LTIB2			LTIB3			LTIB4			LLMAL			LHEE			LMT1			LMT2			RTHI			RTHI2			RTHI3			RTHI4			RLFC			RTIB1			RTIB2			RTIB3			RTIB4			RLMAL			RHEE			RMT1			RMT2			RMT5		
		X1	Y1	Z1	X2	Y2	Z2	X3	Y3	Z3	X4	Y4	Z4	X5	Y5	Z5	X6	Y6	Z6	X7	Y7	Z7	X8	Y8	Z8	X9	Y9	Z9	X10	Y10	Z10	X11	Y11	Z11	X12	Y12	Z12	X13	Y13	Z13	X14	Y14	Z14	X15	Y15	Z15	X16	Y16	Z16	X17	Y17	Z17	X18	Y18	Z18	X19	Y19	Z19	X20	Y20	Z20	X21	Y21	Z21	X22	Y22	Z22	X23	Y23	Z23	X24	Y24	Z24	X25	Y25	Z25	X26	Y26	Z26	X27	Y27	Z27	X28	Y28	Z28	X29	Y29	Z29	X30	Y30	Z30	X31	Y31	Z31	X32	Y32	Z32	X33	Y33	Z33	X34	Y34	Z34	X35	Y35	Z35	X36	Y36	Z36	X37	Y37	Z37	X38	Y38	Z38	X39	Y39	Z39	X40	Y40	Z40	X41	Y41	Z41	X42	Y42	Z42	X43	Y43	Z43	X44	Y44	Z44	X45	Y45	Z45	X46	Y46	Z46	X47	Y47	Z47	X48	Y48	Z48	X49	Y49	Z49	X50	Y50	Z50	X51	Y51	Z51	X52	Y52	Z52	X53	Y53	Z53	X54	Y54	Z54	

428	2.135000	-2569.529272	1552.986498	332.975659	-2747.670762	1578.243778	247.933541	-2709.418541	1559.588436	371.963693	-2809.173851	1456.924340	296.361620	-3035.001812	1191.994560	329.386929	-2730.828678	1311.150926	272.080118	-2744.892107	1374.106184	130.799983	-2913.101027	1338.877485	24.131025	-2922.396842	1291.076756	25.196287	-2974.327955	1313.634236	5.449102	-3088.124472	1278.745744	-15.043639	-3111.214323	1280.993973	52.556709	-3136.172411	1025.692526	-16.121997	-3206.143243	1037.076104	-40.634533	-3127.077597	976.710031	-66.166992	-2715.515250	1395.435325	431.375455	-2753.074492	1246.223797	527.198632	-2728.539904	1209.853359	509.608227	-2763.821738	1183.524696	554.753677	-2772.828009	1046.250579	569.633717	-2810.205083	1027.596852	508.304818	-2551.236001	1051.611932	436.937971	-2541.845499	999.098986	471.201669	-2479.313096	1073.252283	466.355178	-2964.479920	951.977221	429.822488	-3085.260962	1116.011278	328.590957	-3104.269955	1089.758294	299.267223	-3099.771933	1086.466532	357.551056	-2929.558557	801.721432	98.330289	-2854.012009	760.839361	96.425007	-2818.296204	788.268834	114.070859	-2843.263239	699.838305	104.297370	-2712.619561	456.705793	159.623855	-2774.539871	406.878442	120.979642	-2733.713926	407.560770	136.810771	-2730.554392	330.404519	177.097483	-2786.303345	174.175952	180.691576	-2857.304336	128.820061	234.862354	-2635.089356	139.083217	243.371795	-2635.336292	133.642256	196.838675	-3113.890985	726.332981	483.476044	-3105.901952	662.092033	477.316199	-3077.260552	647.398526	468.874292	-3168.527386	605.620637	464.147613	-3211.919676	508.051109	440.491367	-3399.216246	415.558231	381.408014	-3489.448979	473.162505	407.306833	-3482.652498	428.708308	394.544514	-3524.340686	410.667081	355.846517	-3630.031251	457.943122	375.387870	-3647.289687	526.924363	322.265135	-3693.336065	307.857672	281.581726	-3705.158171	307.440867	323.087109	-3738.031674	351.990391	367.633019	
429	2.140000	-2540.614146	1553.301752	331.622313	-2718.665846	1578.993922	246.436248	-2680.509103	1559.897392	370.331435	-2779.798171	1458.159048	294.777775	-3006.287039	1194.343549	329.248132	-2702.577844	1311.588761	270.674385	-2717.294379	1374.561987	129.537790	-2885.340033	1330.779947	22.837553	-2892.322613	1282.826157	25.013767	-2945.191136	1302.104002	4.461247	-3057.341047	1260.880644	-15.085389	-3080.783560	1262.899856	52.461568	-3086.286973	1005.427756	-10.164558	-3156.799207	1010.927507	-35.111434	-3073.097852	956.283466	-58.650560	-2685.218628	1392.857787	431.388809	-2730.721367	1244.883480	526.895774	-2708.344213	1207.015591	508.933695	-2745.250993	1182.592318	554.011774	-2762.881828	1046.151269	570.387878	-2799.507178	1029.360278	508.423636	-2536.459332	1023.201724	446.857780	-2534.578127	970.294186	482.352235	-2463.162260	1036.721458	479.205089	-2933.975388	953.987999	429.729897	-3056.941441	1117.038505	329.447687	-3076.090709	1090.854873	300.221519	-3070.833464	1087.284846	358.395522	-2907.878095	798.773053	96.781382	-2833.614540	755.534069	93.820540	-2796.599761	782.276456	109.741896	-2824.455695	694.351501	102.415814	-2695.029680	450.205832	156.014860	-2758.298721	400.403700	119.437317	-2716.931523	401.071789	134.084796	-2712.553390	324.011975	174.618880	-2768.575956	167.857371	180.309539	-2838.616525	123.734323	236.550749	-2616.390095	131.254326	240.150123	-2617.727376	125.440521	193.674334	-3077.517750	724.300836	483.432051	-3067.412854	660.348041	477.670778	-3038.335251	646.639514	469.145960	-3128.206889	601.796003	465.102574	-3168.590449	503.734484	441.252088	-3357.831221	419.676546	379.666686	-3445.749861	480.596401	406.028186	-3440.725219	436.244284	392.017389	-3482.961837	420.871246	352.963295	-3586.765839	472.177810	372.737430	-3601.201416	543.085810	321.311413	-3654.343322	326.628936	275.819707	-3666.560200	325.742661	317.181336	-3698.150656	370.415258	362.548035	
430	2.145000	-2511.865814	1553.292088	330.312085	-2689.719202	1579.611657	244.824918	-2651.773926	1559.992801	368.512685	-2750.746406	1459.036521	293.116831	-2977.396796	1196.050167	329.353687	-2674.376037	1311.920463	269.128641	-2689.835241	1374.929905	128.278240	-2857.189701	1322.196788	21.777911	-2861.680759	1274.206172	24.934270	-2915.417130	1290.034374	3.791215	-3025.416702	1242.305157	-14.820880	-3049.169447	1243.872725	52.685285	-3034.581089	985.964493	-3.792081	-3105.173292	985.377298	-28.982785	-3017.207836	937.042714	-50.796229	-2655.407666	1390.201974	431.121735	-2708.179565	1243.870670	526.646296	-2687.899493	1204.731165	508.392818	-2726.221211	1182.171777	553.311329	-2752.322273	1047.151275	571.425138	-2788.003503	1032.003809	508.853389	-2524.812482	995.476776	457.342415	-2530.371601	943.200350	494.143413	-2451.196010	1001.008183	492.739510	-2903.377494	955.406063	429.447793	-3028.520448	1117.475431	330.519109	-3047.858223	1091.403159	301.422533	-3041.773059	1087.489646	359.471898	-2886.454880	795.847042	95.494891	-2813.502274	750.421108	91.554389	-2775.316943	776.512173	105.724213	-2805.805965	689.121825	100.904083	-2678.435166	443.519330	152.702868	-2743.163396	394.164729	117.935714	-2701.369167	394.563441	131.573692	-2696.369718	317.561188	172.207188	-2753.599999	161.837332	179.686672	-2823.046579	119.240378	237.671092	-2600.881740	122.915061	237.125220	-2603.200524	116.780296	190.700069	-3040.726510	722.019779	483.249440	-3028.465436	658.429552	477.887932	-2998.967268	645.731387	469.188356	-3087.327209	597.848571	465.811427	-3124.577050	499.442131	441.731098	-3315.240251	423.402305	377.899146	-3400.860796	487.197361	404.796073	-3397.453138	443.020165	389.440639	-3440.106226	430.272837	350.247730	-3541.946788	485.185747	370.350459	-3553.929186	557.882264	320.655552	-3613.275469	343.974914	270.642148	-3625.809274	342.584241	311.901872	-3656.218535	387.247990	358.154614	
431	2.150000	-2483.303913	1552.985666	329.045195	-2660.847485	1580.101072	243.100689	-2623.229670	1559.899355	366.496499	-2722.028065	1459.528361	291.401872	-2948.347170	1197.071270	329.697733	-2646.217291	1312.139671	267.471888	-2662.532585	1375.209261	127.022556	-2828.592736	1313.171893	20.960925	-2830.411762	1265.273883	24.955103	-2884.927907	1277.493086	3.446962	-2992.212388	1223.116837	-14.267062	-3016.225022	1224.034770	53.213143	-2981.100288	967.552831	2.994053	-3051.262318	960.733754	-22.272019	-2959.490633	919.247778	-42.610814	-2626.064302	1387.528232	430.600784	-2685.439238	1243.186952	526.487034	-2667.180009	1202.971318	508.054474	-2706.711746	1182.255799	552.762714	-2741.037240	1049.197079	572.787604	-2775.723351	1035.469200	509.726379	-2516.309189	968.987655	468.225003	-2529.038111	918.373565	506.411298	-2443.344135	966.833300	506.643404	-2872.686450	956.198918	428.907101	-2999.979221	1117.340338	331.799896	-3019.556345	1091.421856	302.858433	-3012.587229	1087.099687	360.762852	-2865.173946	792.981741	94.479059	-2793.547080	745.548436	89.647745	-2754.323506	771.025219	102.085284	-2787.190662	684.191604	99.734912	-2662.773290	436.588046	149.759821	-2728.991032	388.086165	116.441667	-2686.913653	387.968440	129.316131	-2681.928016	310.993444	169.904805	-2741.227822	156.052823	178.805270	-2810.481589	115.186846	238.090449	-2588.447725	114.207409	234.442901	-2591.580955	107.816562	188.075275	-3003.548786	719.519510	482.968356	-2989.083467	656.365861	477.954080	-2959.186270	644.712186	469.001518	-3045.893086	593.801966	466.271714	-3079.873975	495.164639	441.919568	-3271.507590	426.707271	376.115372	-3354.882246	492.966764	403.590092	-3352.939761	449.041549	386.906357	-3395.899113	438.820957	347.750283	-3495.736738	496.951582	368.280303	-3505.700564	571.265906	320.237756	-3570.312854	359.718508	266.206458	-3583.048746	357.822911	307.420040	-3612.372935	402.374723	354.594640	
432	2.155000	-2454.945047	1552.409535	327.823808	-2632.071911	1580.452666	241.272445	-2594.891868	1559.633675	364.290343	-2693.637559	1459.621048	289.658146	-2919.168361	1197.385904	330.254830	-2618.098751	1312.228760	265.732410	-2635.399198	1375.389390	125.775999	-2799.489375	1303.759813	20.390943	-2798.459447	1256.101148	25.072769	-2853.642575	1264.562772	3.424594	-2957.593543	1203.435052	-13.445736	-2981.813415	1203.535559	54.022794	-2925.903275	950.439882	10.191191	-2995.088563	937.308923	-15.014761	-2900.044436	903.159178	-34.095714	-2597.164312	1384.886673	429.863070	-2662.525897	1242.841881	526.451947	-2646.200240	1201.711848	507.991119	-2686.748088	1182.839861	552.450338	-2728.946528	1052.225273	574.509620	-2762.733487	1039.706511	511.150856	-2510.846448	944.260206	479.344960	-2530.284969	896.295145	518.986956	-2439.371022	934.847968	520.615143	-2841.906485	956.338104	428.032889	-2971.303775	1116.661889	333.274125	-2991.167934	1090.939673	304.503918	-2983.272726	1086.142180	362.238125	-2843.921698	790.207335	93.713031	-2773.629190	740.933637	88.097987	-2733.501592	765.814813	98.905029	-2768.519188	679.567381	98.845148	-2647.999647	429.354370	147.224222	-2715.674786	382.089839	114.925174	-2673.476820	381.221204	127.325495	-2669.154278	304.261533	167.736877	-2731.283457	150.460498	177.669379	-2800.759136	111.428719	237.724972	-2578.912688	105.346813	232.217855	-2582.646829	98.775706	185.929623	-2966.016212	716.829095	482.610367	-2949.286927	654.192422	477.857526	-2919.017468	643.627314	468.590048	-3003.903171	589.684449	466.483845	-3034.470675	490.900635	441.818170	-3226.692284	429.565057	374.322093	-3307.908800	497.909515	402.399217	-3307.285390	454.313489	384.498315	-3350.463957	446.472249	345.505032	-3448.288300	507.466278	366.571545	-3456.701846	583.207336	319.997679	-3525.665227	373.721167	262.644409	-3538.458792	371.355550	303.874081	-3566.778207	415.731984	351.969226	
